# File created by Blade
# Date/Time:  Tue Apr 07 20:57:09 2015
# Frame Rate: 120.000 fps
#------------------------------------------------------
:FULLY-SPECIFIED
:DEGREES
642
root -14.422819 41.587885 8.819678 371.891459 -63.695113 -421.855183
Spine -56.326793 -19.931171 -5.846658
Head -79.698630 -4.462634 9.290878
LeftShoulder -19.099176 3.957128 46.748856
LeftArm 209.469810 -72.610823 -198.275939
LeftForeArm -40.888897 -0.000000 40.014740
LeftHand 25.619833 -0.000000 57.198279
LeftHandThumb1 -26.253704 0.000000 33.147579
RightShoulder -32.401207 38.375405 -68.541357
RightArm 39.153583 59.582852 29.637686
RightForeArm 12.778045 0.000000 53.828248
RightHand 25.106744 -0.000000 -61.102874
RightHandThumb1 -24.326973 -0.000000 -32.862282
LeftUpLeg 15.672678 -1.693495 12.210721
LeftLeg 19.656695 -0.000000 -0.000000
LeftFoot 42.869686 22.098616 -13.915809
LeftToeBase 18.581909 -0.000000 -0.000000
RightUpLeg -7.704299 -4.820408 7.798674
RightLeg 48.522525 -0.000000 -0.000000
RightFoot 51.813819 -8.088185 7.247877
RightToeBase 29.832729 -0.000000 -0.000000
643
root -13.838264 42.161342 8.860211 371.175453 -63.697763 -424.821802
Spine -56.595801 -19.939282 -6.320627
Head -81.698726 -4.937310 9.223868
LeftShoulder -19.058619 2.695998 46.209373
LeftArm 214.119002 -72.450786 -202.096947
LeftForeArm -39.280913 -0.000000 37.979489
LeftHand 26.016341 0.000000 56.813335
LeftHandThumb1 -26.253704 0.000000 33.147579
RightShoulder -32.936874 39.084207 -68.862690
RightArm 37.275038 59.826743 27.132364
RightForeArm 12.236840 -0.000000 53.269105
RightHand 24.780021 -0.000000 -60.743979
RightHandThumb1 -24.326973 -0.000000 -32.862282
LeftUpLeg 18.468319 -1.786802 13.065072
LeftLeg 20.421560 -0.000000 -0.000000
LeftFoot 43.326856 21.750869 -12.521209
LeftToeBase 18.783121 -0.000000 -0.000000
RightUpLeg -8.336243 -5.132065 7.029279
RightLeg 52.562510 -0.000000 -0.000000
RightFoot 52.218548 -6.691560 7.361477
RightToeBase 30.789255 -0.000000 -0.000000
644
root -13.190861 42.629633 8.895778 370.601189 -63.615850 -427.469323
Spine -57.362571 -20.363308 -6.258992
Head -83.426213 -4.908957 9.204444
LeftShoulder -19.351616 2.197232 45.988767
LeftArm 216.863079 -71.840387 -204.742278
LeftForeArm -37.926135 0.000000 36.458583
LeftHand 25.813582 -0.000000 56.928979
LeftHandThumb1 -26.253704 0.000000 33.147579
RightShoulder -32.476748 39.921713 -68.253120
RightArm 35.545017 60.596667 24.055781
RightForeArm 11.575543 -0.000000 52.004157
RightHand 24.430839 -0.000000 -61.926170
RightHandThumb1 -24.326973 -0.000000 -32.862282
LeftUpLeg 20.553421 -2.504339 13.411658
LeftLeg 21.018685 -0.000000 -0.000000
LeftFoot 44.041437 21.047951 -11.361391
LeftToeBase 19.327733 -0.000000 -0.000000
RightUpLeg -9.814594 -5.161555 6.046021
RightLeg 56.477892 -0.000000 -0.000000
RightFoot 52.521030 -5.027354 7.483384
RightToeBase 32.070975 -0.000000 -0.000000
645
root -12.514201 43.015842 8.920375 370.396287 -63.393313 -430.133980
Spine -58.395407 -20.789129 -6.028603
Head -84.919931 -5.095689 8.965074
LeftShoulder -19.603395 1.565027 45.726639
LeftArm 217.301197 -71.029880 -204.966772
LeftForeArm -36.290607 0.000000 34.825277
LeftHand 25.569234 -0.000000 56.472334
LeftHandThumb1 -26.253704 0.000000 33.147579
RightShoulder -32.564837 40.396163 -68.611131
RightArm 34.582324 61.345762 23.001895
RightForeArm 10.495488 0.000000 50.807910
RightHand 24.771591 -0.000000 -61.904602
RightHandThumb1 -24.326973 -0.000000 -32.862282
LeftUpLeg 22.076985 -3.523566 13.576678
LeftLeg 21.363197 -0.000000 -0.000000
LeftFoot 44.301946 20.751152 -11.032925
LeftToeBase 20.173147 -0.000000 -0.000000
RightUpLeg -11.898120 -5.358576 5.072406
RightLeg 59.782876 -0.000000 -0.000000
RightFoot 52.848453 -4.538447 6.903868
RightToeBase 33.177572 -0.000000 -0.000000
646
root -11.826556 43.327089 8.938433 370.755029 -63.054897 -433.170361
Spine -59.618717 -21.270152 -5.330503
Head -85.991690 -5.338344 8.737309
LeftShoulder -19.858688 0.997270 45.521800
LeftArm 217.013722 -70.200751 -204.399977
LeftForeArm -34.748937 -0.000000 33.035191
LeftHand 25.086113 -0.000000 57.620170
LeftHandThumb1 -26.253704 0.000000 33.147579
RightShoulder -33.076634 41.154416 -69.429174
RightArm 34.793203 61.652613 23.319139
RightForeArm 9.254378 -0.000000 49.208684
RightHand 25.361630 -0.000000 -61.610728
RightHandThumb1 -24.326973 -0.000000 -32.862282
LeftUpLeg 23.216559 -4.489283 13.870361
LeftLeg 21.414081 -0.000000 -0.000000
LeftFoot 44.186985 21.089020 -10.712856
LeftToeBase 20.234505 -0.000000 -0.000000
RightUpLeg -14.411051 -5.470169 4.234525
RightLeg 62.539824 -0.000000 -0.000000
RightFoot 52.814210 -4.004412 6.695095
RightToeBase 33.044177 -0.000000 -0.000000
647
root -11.134335 43.574491 8.937426 371.408215 -62.422682 -436.331884
Spine -60.882951 -22.093375 -4.414164
Head -86.760986 -5.271351 8.613028
LeftShoulder -20.144470 0.283673 45.525509
LeftArm 215.895661 -69.385724 -202.824316
LeftForeArm -34.093151 0.000000 31.122600
LeftHand 25.171886 -0.000000 57.545820
LeftHandThumb1 -26.253704 0.000000 33.147579
RightShoulder -33.744715 41.576046 -70.227938
RightArm 35.863290 62.005518 24.776040
RightForeArm 8.211683 -0.000000 47.332832
RightHand 25.554530 0.000000 -61.372686
RightHandThumb1 -24.326973 -0.000000 -32.862282
LeftUpLeg 23.907420 -5.546834 14.344984
LeftLeg 21.446002 -0.000000 -0.000000
LeftFoot 43.693016 21.925391 -10.803040
LeftToeBase 20.285522 -0.000000 -0.000000
RightUpLeg -17.290070 -5.723507 3.521629
RightLeg 64.624259 -0.000000 -0.000000
RightFoot 53.005354 -3.081014 6.822747
RightToeBase 33.965192 -0.000000 -0.000000
648
root -10.451478 43.768050 8.916659 372.123608 -61.549063 -439.595483
Spine -62.046417 -23.273888 -3.306753
Head -87.101371 -4.803038 8.536675
LeftShoulder -20.455545 -0.290368 45.578036
LeftArm 214.653675 -68.778828 -200.873454
LeftForeArm -34.138349 0.000000 29.328335
LeftHand 24.676338 -0.000000 56.657391
LeftHandThumb1 -26.253704 0.000000 33.147579
RightShoulder -34.131704 41.807674 -70.603756
RightArm 37.129507 62.426102 26.428051
RightForeArm 7.704048 0.000000 45.284159
RightHand 25.642660 -0.000000 -60.856187
RightHandThumb1 -24.326973 -0.000000 -32.862282
LeftUpLeg 24.331908 -6.685325 15.037278
LeftLeg 21.607765 -0.000000 -0.000000
LeftFoot 43.297328 22.626982 -10.789306
LeftToeBase 20.284010 -0.000000 -0.000000
RightUpLeg -20.235127 -6.044833 2.908417
RightLeg 66.037563 -0.000000 -0.000000
RightFoot 53.195205 -1.932568 7.029466
RightToeBase 34.473938 -0.000000 -0.000000
649
root -9.769888 43.897955 8.886338 372.505177 -60.523804 -442.588059
Spine -62.824509 -24.742937 -2.539822
Head -87.416955 -4.239159 9.131893
LeftShoulder -21.099252 -0.813837 45.603895
LeftArm 210.968173 -67.925319 -195.923996
LeftForeArm -33.641778 -0.000000 27.310209
LeftHand 24.797015 -0.000000 56.572387
LeftHandThumb1 -26.253704 0.000000 33.147579
RightShoulder -34.508222 41.891272 -70.356794
RightArm 38.513751 62.584673 27.519991
RightForeArm 7.892444 -0.000000 42.640827
RightHand 25.440719 0.000000 -60.313004
RightHandThumb1 -24.326973 -0.000000 -32.862282
LeftUpLeg 24.497584 -7.876664 15.706089
LeftLeg 22.008130 -0.000000 -0.000000
LeftFoot 43.269010 23.206418 -10.603738
LeftToeBase 20.432449 -0.000000 -0.000000
RightUpLeg -23.205290 -6.546733 2.175473
RightLeg 66.766053 -0.000000 -0.000000
RightFoot 53.389211 -0.987655 7.129253
RightToeBase 34.658540 -0.000000 -0.000000
650
root -9.083290 43.961059 8.844637 373.007411 -59.421548 -445.468060
Spine -63.646090 -26.118127 -2.075458
Head -87.589091 -3.972367 9.667275
LeftShoulder -21.952758 -0.551222 45.219198
LeftArm 203.516014 -65.520575 -187.392074
LeftForeArm -32.485825 -0.000000 25.793305
LeftHand 24.720243 0.000000 56.777821
LeftHandThumb1 -26.253704 0.000000 33.147579
RightShoulder -34.429749 41.766143 -69.694734
RightArm 38.582578 62.387926 26.420867
RightForeArm 9.037053 -0.000000 39.431619
RightHand 25.487809 0.000000 -59.590211
RightHandThumb1 -24.326973 -0.000000 -32.862282
LeftUpLeg 24.127270 -8.818728 16.510127
LeftLeg 22.525220 -0.000000 -0.000000
LeftFoot 43.620575 23.545194 -10.127472
LeftToeBase 20.564244 -0.000000 -0.000000
RightUpLeg -26.481900 -7.175089 1.452340
RightLeg 66.761456 -0.000000 -0.000000
RightFoot 53.628093 -0.417542 7.237291
RightToeBase 34.236440 -0.000000 -0.000000
651
root -8.392985 43.953192 8.788939 373.912107 -58.491673 -448.558157
Spine -64.644151 -27.309700 -1.371683
Head -87.723953 -3.585134 10.093571
LeftShoulder -21.550671 -1.588771 45.539779
LeftArm 204.272855 -66.044228 -186.804434
LeftForeArm -32.794653 0.000000 23.669570
LeftHand 24.927960 -0.000000 56.051016
LeftHandThumb1 -26.253704 0.000000 33.147579
RightShoulder -33.863935 41.902260 -68.502698
RightArm 37.546666 61.732718 23.216420
RightForeArm 10.952719 0.000000 35.565193
RightHand 25.762638 -0.000000 -58.734139
RightHandThumb1 -24.326973 -0.000000 -32.862282
LeftUpLeg 23.423329 -9.447365 17.445555
LeftLeg 22.938026 -0.000000 -0.000000
LeftFoot 43.899737 23.559864 -9.785135
LeftToeBase 20.830669 -0.000000 -0.000000
RightUpLeg -29.992176 -7.475177 0.821943
RightLeg 65.926587 -0.000000 -0.000000
RightFoot 53.728913 -0.452149 7.821379
RightToeBase 34.609719 -0.000000 -0.000000
652
root -7.742822 43.907615 8.723370 374.933968 -57.800926 -452.292682
Spine -64.911022 -28.087843 -0.557147
Head -88.044573 -3.262011 10.503238
LeftShoulder -21.121809 -3.358978 45.776792
LeftArm 205.448979 -67.432563 -186.218718
LeftForeArm -32.040193 -0.000000 21.471651
LeftHand 25.014137 -0.000000 53.504629
LeftHandThumb1 -26.253704 0.000000 33.147579
RightShoulder -33.174814 42.325326 -67.285961
RightArm 35.552504 60.512572 18.421446
RightForeArm 13.196719 -0.000000 31.344331
RightHand 26.284486 -0.000000 -57.796852
RightHandThumb1 -24.326973 -0.000000 -32.862282
LeftUpLeg 23.267173 -9.749508 18.645056
LeftLeg 22.979311 -0.000000 -0.000000
LeftFoot 44.112150 23.145324 -9.106666
LeftToeBase 21.304061 -0.000000 -0.000000
RightUpLeg -33.042364 -7.520070 0.485781
RightLeg 64.456299 -0.000000 -0.000000
RightFoot 53.826103 0.099864 7.585974
RightToeBase 33.756750 -0.000000 -0.000000
653
root -7.118561 43.802987 8.650119 376.063273 -57.364736 -456.132242
Spine -65.110084 -28.595749 0.323950
Head -88.470767 -2.799926 10.680589
LeftShoulder -20.623185 -4.769879 45.687001
LeftArm 206.862305 -68.979578 -185.525009
LeftForeArm -31.018974 -0.000000 19.149437
LeftHand 24.987881 0.000000 52.674517
LeftHandThumb1 -26.253704 0.000000 33.147579
RightShoulder -31.966241 42.912141 -65.742175
RightArm 33.118208 59.035638 12.836501
RightForeArm 15.365324 0.000000 27.026914
RightHand 26.527943 -0.000000 -56.748434
RightHandThumb1 -24.326973 -0.000000 -32.862282
LeftUpLeg 23.166027 -9.826885 19.740906
LeftLeg 22.711098 -0.000000 -0.000000
LeftFoot 44.159406 23.150706 -8.823161
LeftToeBase 21.116625 -0.000000 -0.000000
RightUpLeg -36.081984 -7.270100 0.153084
RightLeg 62.291989 -0.000000 -0.000000
RightFoot 53.962251 0.554490 7.378685
RightToeBase 32.613165 -0.000000 -0.000000
